<svg xmlns="http://www.w3.org/2000/svg" version="1.1" xmlns:xlink="http://www.w3.org/1999/xlink"
    xmlns:svgjs="http://svgjs.com/svgjs" width="512" height="512" x="0" y="0" viewBox="0 0 16 16"
    style="enable-background:new 0 0 512 512" xml:space="preserve" class="">
    <g>
        <path
            d="M2.25 13.25V15a.5.5 0 0 0 .5.5h10.5a.5.5 0 0 0 .5-.5v-1.75a5.755 5.755 0 0 0-3.665-5.353 4 4 0 1 0-4.17 0A5.755 5.755 0 0 0 2.25 13.25zM5 4.5a3 3 0 1 1 3 3 3.003 3.003 0 0 1-3-3zm3 4a4.755 4.755 0 0 1 4.75 4.75v1.25h-9.5v-1.25A4.755 4.755 0 0 1 8 8.5z"
            fill="#000000" data-original="#000000" class="">
        </path>
    </g>
</svg>